<?xml version="1.0" encoding="UTF-8" standalone="no"?>
<!-- Created with Inkscape (http://www.inkscape.org/) -->

<svg
   width="210mm"
   height="297mm"
   viewBox="0 0 210 297"
   version="1.1"
   id="svg1"
   inkscape:version="1.3.2 (091e20ef0f, 2023-11-25)"
   sodipodi:docname="calories-burn-vecteezy.svg"
   xmlns:inkscape="http://www.inkscape.org/namespaces/inkscape"
   xmlns:sodipodi="http://sodipodi.sourceforge.net/DTD/sodipodi-0.dtd"
   xmlns="http://www.w3.org/2000/svg"
   xmlns:svg="http://www.w3.org/2000/svg">
  <sodipodi:namedview
     id="namedview1"
     pagecolor="#ffffff"
     bordercolor="#000000"
     borderopacity="0.25"
     inkscape:showpageshadow="2"
     inkscape:pageopacity="0.0"
     inkscape:pagecheckerboard="0"
     inkscape:deskcolor="#d1d1d1"
     inkscape:document-units="mm"
     inkscape:zoom="0.18641099"
     inkscape:cx="-552.54254"
     inkscape:cy="-367.46761"
     inkscape:window-width="1920"
     inkscape:window-height="1011"
     inkscape:window-x="0"
     inkscape:window-y="0"
     inkscape:window-maximized="1"
     inkscape:current-layer="layer1" />
  <defs
     id="defs1" />
  <g
     inkscape:label="Layer 1"
     inkscape:groupmode="layer"
     id="layer1">
    <path
       id="path3"
       d="m 147.88349,282.055 c 35.2037,-16.55586 57.94375,-52.35928 57.94375,-91.30242 0,-33.2105 -12.71764,-49.21603 -32.06397,-73.40248 -4.13808,-5.28461 -8.47725,-10.67153 -13.16567,-16.85219 -18.74661,-24.683868 -5.08353,-80.034705 -4.93536,-80.634427 0.34925,-1.446389 -0.0988,-3.040945 -1.14653,-4.088695 -1.09714,-1.04775 -2.69169,-1.495778 -4.13808,-1.097139 -1.49578,0.398639 -36.94994,10.223501 -72.953034,36.752391 -33.409821,24.630946 -73.25184,68.76345 -73.25184,139.32254 0,38.94314 22.788387,74.74656 57.993142,91.30242 0.548217,0.29986 1.196623,0.39864 1.794934,0.39864 1.246716,0 2.493433,-0.55033 3.340806,-1.54517 1.246716,-1.49577 1.296458,-3.69005 0.14993,-5.28814 -5.834239,-7.92691 -8.876242,-17.40252 -8.876242,-27.27325 0,-59.09028 38.545913,-88.81181 58.041464,-100.03014 -8.57602,19.99544 -20.891845,61.33395 7.67998,87.86284 1.19591,1.14652 2.99155,1.49577 4.54025,0.84666 19.84375,-8.32908 19.14525,-35.85281 16.00552,-54.60295 8.77712,12.06853 19.34634,29.82031 18.84892,45.12734 -0.6985,24.18645 -10.87261,36.0045 -17.60361,43.83264 -1.34408,1.59456 -2.54353,2.94217 -3.48897,4.23686 -1.14653,1.59809 -1.09714,3.79237 0.14816,5.28814 1.24884,1.49578 3.34081,1.9932 5.13645,1.14653"
       style="fill:#d7453e;fill-opacity:1;fill-rule:nonzero;stroke:none;stroke-width:0.0352778" />
    <text
       xml:space="preserve"
       style="font-size:35.4638px;line-height:47.8;font-family:Jomolhari;-inkscape-font-specification:Jomolhari;fill:#d8453e;stroke:#000000;stroke-width:0"
       x="61.701115"
       y="271.8786"
       id="text1"><tspan
         sodipodi:role="line"
         id="tspan1"
         style="font-style:normal;font-variant:normal;font-weight:bold;font-stretch:normal;font-family:'Droid Sans';-inkscape-font-specification:'Droid Sans Bold';fill:#d7453e;fill-opacity:1;stroke-width:0"
         x="61.701115"
         y="271.8786">KCAL</tspan></text>
  </g>
</svg>
