<?xml version="1.0" encoding="UTF-8" standalone="no"?>
<svg
   version="1.1"
   id="Layer_1"
   x="0px"
   y="0px"
   viewBox="0 0 65.75 122.88"
   style="enable-background:new 0 0 65.75 122.88"
   xml:space="preserve"
   sodipodi:docname="temperature-thermometer-icon.svg"
   inkscape:version="1.3.2 (091e20ef0f, 2023-11-25)"
   xmlns:inkscape="http://www.inkscape.org/namespaces/inkscape"
   xmlns:sodipodi="http://sodipodi.sourceforge.net/DTD/sodipodi-0.dtd"
   xmlns="http://www.w3.org/2000/svg"
   xmlns:svg="http://www.w3.org/2000/svg"><defs
     id="defs1" /><sodipodi:namedview
     id="namedview1"
     pagecolor="#ffffff"
     bordercolor="#000000"
     borderopacity="0.25"
     inkscape:showpageshadow="2"
     inkscape:pageopacity="0.0"
     inkscape:pagecheckerboard="0"
     inkscape:deskcolor="#d1d1d1"
     inkscape:zoom="6.5511069"
     inkscape:cx="32.895204"
     inkscape:cy="61.439999"
     inkscape:window-width="1920"
     inkscape:window-height="1011"
     inkscape:window-x="0"
     inkscape:window-y="0"
     inkscape:window-maximized="1"
     inkscape:current-layer="Layer_1" /><style
     type="text/css"
     id="style1">.st0{fill-rule:evenodd;clip-rule:evenodd;}</style><g
     id="g1"
     style="fill:#d7453e;fill-opacity:1"><path
       class="st0"
       d="M16.91,47.63h19.88v-32.6c0-2.73-1.12-5.22-2.92-7.02c-1.8-1.8-4.29-2.92-7.02-2.92s-5.22,1.12-7.02,2.92 c-1.8,1.8-2.92,4.29-2.92,7.02V47.63L16.91,47.63z M49.06,13.93c-1.41,0-2.55-1.14-2.55-2.55c0-1.41,1.14-2.55,2.55-2.55H63.2 c1.41,0,2.55,1.14,2.55,2.55c0,1.41-1.14,2.55-2.55,2.55H49.06L49.06,13.93z M49.06,28.3c-1.41,0-2.55-1.14-2.55-2.55 s1.14-2.55,2.55-2.55H63.2c1.41,0,2.55,1.14,2.55,2.55s-1.14,2.55-2.55,2.55H49.06L49.06,28.3z M49.06,42.67 c-1.41,0-2.55-1.14-2.55-2.55c0-1.41,1.14-2.55,2.55-2.55H63.2c1.41,0,2.55,1.14,2.55,2.55c0,1.41-1.14,2.55-2.55,2.55H49.06 L49.06,42.67z M49.06,57.04c-1.41,0-2.55-1.14-2.55-2.55c0-1.41,1.14-2.55,2.55-2.55H63.2c1.41,0,2.55,1.14,2.55,2.55 c0,1.41-1.14,2.55-2.55,2.55H49.06L49.06,57.04z M49.06,71.41c-1.41,0-2.55-1.14-2.55-2.55c0-1.41,1.14-2.55,2.55-2.55H63.2 c1.41,0,2.55,1.14,2.55,2.55c0,1.41-1.14,2.55-2.55,2.55H49.06L49.06,71.41z M41.88,74.45c6.87,4.81,11.36,12.79,11.36,21.81 c0,14.7-11.92,26.62-26.62,26.62C11.92,122.88,0,110.96,0,96.26c0-9.22,4.69-17.35,11.82-22.12V15.03c0-4.14,1.69-7.89,4.41-10.62 C18.95,1.69,22.71,0,26.85,0c4.14,0,7.89,1.69,10.62,4.41c2.72,2.72,4.41,6.48,4.41,10.62V74.45L41.88,74.45z"
       id="path1"
       style="fill:#d7453e;fill-opacity:1" /></g></svg>
